<svg width="68" height="24" viewBox="0 0 68 24" fill="none" xmlns="http://www.w3.org/2000/svg">
<rect x="0.53125" y="0.383911" width="67.1179" height="22.8339" rx="4" fill="white"/>
<g clip-path="url(#clip0_253_952)">
<path d="M17.4344 4.53548H7.67517C6.40423 4.53548 5.375 5.57733 5.375 6.86335V16.7387C5.375 18.0239 6.40423 19.0662 7.67517 19.0662H17.4344C18.7051 19.0662 19.7338 18.0239 19.7338 16.7387V6.86335C19.7338 5.57733 18.7051 4.53548 17.4344 4.53548Z" fill="#1677FF"/>
<path d="M9.25487 15.7097C7.02102 15.7097 6.3606 13.9291 7.46456 12.9549C7.83296 12.6256 8.50614 12.4649 8.86504 12.4288C10.192 12.2961 11.4203 12.8084 12.8699 13.5245C11.851 14.8695 10.5532 15.7097 9.25487 15.7097ZM17.1971 13.6595C16.6225 13.4647 15.8515 13.1669 14.9928 12.8525C15.5085 11.9453 15.9205 10.9121 16.1912 9.7893H13.3608V8.75765H16.828V8.18181H13.3608V6.46204H11.9458C11.6976 6.46204 11.6976 6.71001 11.6976 6.71001V8.18181H8.19091V8.75765H11.6976V9.7893H8.80237V10.365H14.4176C14.2121 11.0814 13.9362 11.7541 13.6088 12.3651C11.7867 11.7568 9.84246 11.2637 8.62102 11.5672C7.83988 11.7619 7.33679 12.1095 7.04123 12.4738C5.68471 14.144 6.65765 16.6809 9.52248 16.6809C11.2163 16.6809 12.8481 15.7252 14.1128 14.1502C15.9991 15.0678 19.7338 16.6433 19.7338 16.6433V14.398C19.7338 14.398 19.2648 14.3601 17.1971 13.6595Z" fill="white"/>
<path d="M36.5537 6.6627C36.5537 7.41439 37.1012 7.92041 37.8648 7.92041C38.6284 7.92041 39.1759 7.41439 39.1759 6.6627C39.1759 5.92544 38.6284 5.40486 37.8648 5.40486C37.1012 5.40486 36.5537 5.92544 36.5537 6.6627Z" fill="#1677FF"/>
<path d="M32.894 16.2766H35.1705V5.72302H32.894V16.2766Z" fill="black"/>
<path d="M25.5895 12.6189L26.9437 7.92042H27.0015L28.2838 12.6189H25.5895ZM28.9034 6.08442H25.8488L22.4341 16.2766H24.5377L25.114 14.2815H28.7305L29.2778 16.2766H31.9722L28.9034 6.08442Z" fill="black"/>
<path d="M36.7266 16.2765H39.003V8.52759H36.7266V16.2765Z" fill="black"/>
<path d="M62.7917 8.54206L62.806 8.52763H60.6592L59.305 13.2405H59.2329L57.6769 8.52763H55.1265L58.1956 16.3055L56.9132 18.6764V18.7343H58.916L62.7917 8.54206Z" fill="black"/>
<path d="M43.225 14.9466C42.9658 14.9466 42.7207 14.9177 42.4471 14.8309V10.6384C42.9225 10.3059 43.3115 10.1468 43.8013 10.1468C44.6515 10.1468 45.3286 10.8264 45.3286 12.272C45.3286 14.1225 44.3345 14.9466 43.225 14.9466ZM44.6659 8.36867C43.8302 8.36867 43.1819 8.68674 42.4471 9.29388V8.52763H40.1704V18.7343H42.4471V16.2043C42.8793 16.32 43.2827 16.3778 43.7726 16.3778C45.8041 16.3778 47.634 14.8743 47.634 12.1998C47.634 9.7999 46.3082 8.36867 44.6659 8.36867Z" fill="black"/>
<path d="M52.4036 14.3971C51.7985 14.7296 51.4525 14.8598 51.0494 14.8598C50.5018 14.8598 50.1561 14.4984 50.1561 13.9201C50.1561 13.7032 50.1992 13.4864 50.372 13.313C50.6459 13.0382 51.1791 12.8358 52.4036 12.5467V14.3971ZM54.68 14.3393V11.1011C54.68 9.33719 53.6428 8.36869 51.813 8.36869C50.6459 8.36869 49.8391 8.57094 48.3694 9.01912L48.7727 10.7974C50.1127 10.1901 50.7035 9.92991 51.3231 9.92991C52.0724 9.92991 52.4036 10.4648 52.4036 11.2889V11.3467C49.7957 11.8383 48.9889 12.113 48.4846 12.619C48.1101 12.9949 47.9517 13.5298 47.9517 14.1514C47.9517 15.6404 49.1043 16.4357 50.185 16.4357C50.9917 16.4357 51.64 16.132 52.519 15.4669L52.6775 16.2766H54.9539L54.68 14.3393Z" fill="black"/>
</g>
<defs>
<clipPath id="clip0_253_952">
<rect width="57.4308" height="14.5307" fill="white" transform="translate(5.375 4.53552)"/>
</clipPath>
</defs>
</svg>
