<svg width="41" height="26" viewBox="0 0 41 26" fill="none" xmlns="http://www.w3.org/2000/svg">
<g clip-path="url(#clip0_253_937)">
<path opacity="0.07" d="M37.7632 0H3.23684C1.40263 0 0 1.40833 0 3.25V22.75C0 24.5917 1.51053 26 3.23684 26H37.7632C39.5974 26 41 24.5917 41 22.75V3.25C41 1.40833 39.4895 0 37.7632 0Z" fill="black"/>
<path d="M37.7633 1.08337C38.9502 1.08337 39.9212 2.05837 39.9212 3.25004V22.75C39.9212 23.9417 38.9502 24.9167 37.7633 24.9167H3.237C2.05015 24.9167 1.0791 23.9417 1.0791 22.75V3.25004C1.0791 2.05837 2.05015 1.08337 3.237 1.08337H37.7633Z" fill="#006FCF"/>
<path d="M9.67937 11.1236L10.5145 13.156H8.85073L9.67937 11.1236ZM27.0234 11.2081H23.8114V12.104H26.9717V13.4463H23.8179V14.4451H27.0299V15.2457L29.2709 12.8136L27.0299 10.2786L27.0234 11.2081ZM11.8502 8.67313H16.1606L17.1176 10.7694L18.0045 8.66663H29.1932L30.3563 9.95579L31.5593 8.66663H36.6984L32.9016 12.8396L36.6595 16.9866H31.4439L30.2808 15.6975L29.067 16.9866H10.822L10.289 15.6975H9.06976L8.53568 16.9866H4.31592L7.86134 8.66663H11.5621L11.8502 8.67313ZM21.1971 9.84096H18.7814L17.1629 13.6716L15.4097 9.84096H13.0122V15.0518L10.7896 9.84096H8.63926L6.06921 15.8123H7.74697L8.27997 14.5231H11.0809L11.6139 15.8123H14.5487V11.5494L16.4379 15.8188H17.7218L19.5992 11.5624V15.8199H21.1723L21.1982 9.83988L21.1971 9.84096ZM31.2745 12.8396L34.0053 9.84096H32.0395L30.3121 11.7108L28.6419 9.84096H22.2826V15.8188H28.5512L30.2927 13.936L31.9629 15.8188H33.9859L31.2745 12.8396Z" fill="white"/>
</g>
<defs>
<clipPath id="clip0_253_937">
<rect width="41" height="26" fill="white"/>
</clipPath>
</defs>
</svg>
