<svg width="33" height="22" viewBox="0 0 33 22" fill="none" xmlns="http://www.w3.org/2000/svg">
<g clip-path="url(#clip0_253_906)">
<path d="M33 20.1102C33 21.1505 32.0994 22 30.9963 22H2.00368C0.900644 22 0 21.1505 0 20.1102V1.8898C0 0.849458 0.900644 0 2.00368 0H30.9862C32.0892 0 32.9899 0.849458 32.9899 1.8898V20.1102H33Z" fill="white"/>
<path d="M26.5134 6.14673H25.3193H19.794H18.5999L17.7904 7.00573L15.1795 9.78317L14.3699 10.6422H13.1758H7.75172H6.55761L7.34694 9.77363L7.72136 9.36321L8.51069 8.49467H7.31658H5.7784H4.91823C4.26046 8.49467 3.72412 9.01961 3.72412 9.64955V11.883V12.0929C3.72412 12.7324 4.26046 13.2478 4.91823 13.2478H5.25218H17.8005H18.7011C19.3589 13.2478 20.2595 12.8565 20.6947 12.3888L22.7793 10.1554L26.5134 6.14673Z" fill="#004E91"/>
<path d="M28.1021 3.54104C28.7598 3.54104 29.2962 4.06598 29.2962 4.69592V7.1393C29.2962 7.77878 28.7598 8.29418 28.1021 8.29418H27.4544H25.7037H24.5096L25.309 7.43518L25.7037 7.00568L26.5032 6.14668H18.5896L14.3698 10.6326H6.50684L12.1434 4.61956L12.356 4.3905C12.8012 3.92282 13.7019 3.53149 14.3596 3.53149H14.6329H28.1021V3.54104Z" fill="#FFDD00"/>
<path d="M29.2963 18.3636V18.0104C29.2963 17.9627 29.266 17.9341 29.1951 17.9341H28.9523C28.8814 17.9341 28.8308 17.9245 28.8207 17.8959C28.8005 17.8673 28.8005 17.81 28.8005 17.7146V16.3783H29.1951C29.2255 16.3783 29.2457 16.3688 29.266 16.3497C29.2862 16.3306 29.2963 16.3115 29.2963 16.2829V15.9107C29.2963 15.882 29.2862 15.8629 29.266 15.8438C29.2457 15.8248 29.2255 15.8152 29.1951 15.8152H28.8005V15.3284C28.8005 15.2998 28.7904 15.2807 28.7802 15.2712C28.76 15.2616 28.7398 15.2521 28.7195 15.2521H28.7094L28.1225 15.3475C28.0921 15.3571 28.0719 15.3666 28.0516 15.3762C28.0314 15.3953 28.0213 15.4143 28.0213 15.4334V15.8057H27.6266C27.5962 15.8057 27.576 15.8152 27.5558 15.8343C27.5355 15.8534 27.5254 15.8725 27.5254 15.9011V16.2065C27.5254 16.2352 27.5355 16.2543 27.5558 16.2638C27.576 16.2829 27.5962 16.2924 27.6266 16.302L28.0213 16.3592V17.6955C28.0213 17.8577 28.0415 17.9913 28.0719 18.0963C28.1123 18.2013 28.1629 18.2777 28.2237 18.3349C28.2945 18.3922 28.3755 18.4304 28.4767 18.4495C28.5778 18.4686 28.6993 18.4781 28.8308 18.4781C28.9017 18.4781 28.9624 18.4781 29.0231 18.4686C29.0737 18.459 29.1445 18.4495 29.2154 18.4399C29.266 18.4399 29.2963 18.4113 29.2963 18.3636ZM27.1915 18.3159V17.9054C27.1915 17.8768 27.1813 17.8577 27.1611 17.8482C27.1409 17.8386 27.1206 17.8291 27.1004 17.8291H27.0903C26.9992 17.8386 26.9081 17.8482 26.8272 17.8482C26.7462 17.8577 26.6349 17.8577 26.4932 17.8577C26.4426 17.8577 26.3819 17.8482 26.3414 17.8291C26.2908 17.81 26.2503 17.7814 26.2099 17.7432C26.1694 17.705 26.1491 17.6477 26.1289 17.5809C26.1087 17.5141 26.0985 17.4282 26.0985 17.3232V16.9415C26.0985 16.8365 26.1087 16.7506 26.1289 16.6838C26.1491 16.6169 26.1795 16.5597 26.2099 16.5215C26.2503 16.4833 26.2908 16.4547 26.3414 16.4356C26.392 16.4165 26.4426 16.407 26.4932 16.407C26.6349 16.407 26.7462 16.407 26.8272 16.4165C26.9081 16.4261 26.9992 16.4261 27.0903 16.4356H27.1004C27.1307 16.4356 27.151 16.4261 27.1611 16.4165C27.1813 16.407 27.1915 16.3879 27.1915 16.3592V15.9488C27.1915 15.9107 27.1813 15.8916 27.1712 15.882C27.151 15.8725 27.1307 15.8534 27.0903 15.8438C27.0194 15.8248 26.9385 15.8152 26.8272 15.7961C26.7158 15.777 26.5944 15.777 26.4426 15.777C26.0985 15.777 25.8253 15.8725 25.6128 16.0729C25.4104 16.2733 25.2991 16.5597 25.2991 16.9415V17.3232C25.2991 17.6955 25.4003 17.9913 25.6128 18.1918C25.8152 18.3922 26.0985 18.4877 26.4426 18.4877C26.5843 18.4877 26.7158 18.4781 26.8272 18.4686C26.9385 18.4495 27.0296 18.4399 27.0903 18.4208C27.1307 18.4113 27.151 18.4018 27.1712 18.3827C27.1915 18.3731 27.1915 18.3445 27.1915 18.3159ZM24.024 17.8291C23.9633 17.8577 23.9026 17.8768 23.8318 17.8959C23.7609 17.915 23.6901 17.9245 23.6192 17.9245C23.518 17.9245 23.4371 17.915 23.3865 17.8864C23.3359 17.8577 23.3157 17.8005 23.3157 17.6955V17.6573C23.3157 17.6 23.3258 17.5523 23.3359 17.5141C23.346 17.4759 23.3764 17.4378 23.4067 17.4091C23.4371 17.3805 23.4877 17.3614 23.5383 17.3423C23.5889 17.3328 23.6597 17.3232 23.7508 17.3232H24.024V17.8291ZM24.7931 16.7124C24.7931 16.5406 24.7628 16.3974 24.7122 16.2829C24.6616 16.1684 24.5806 16.0729 24.4895 15.9966C24.3883 15.9202 24.277 15.8629 24.1353 15.8343C23.9937 15.7961 23.8318 15.777 23.6597 15.777C23.4978 15.777 23.3359 15.7866 23.1841 15.8057C23.0323 15.8248 22.9109 15.8438 22.8198 15.8725C22.7591 15.8916 22.7287 15.9202 22.7287 15.9775V16.3497C22.7287 16.3783 22.7388 16.3974 22.749 16.4165C22.7692 16.4261 22.7894 16.4356 22.8097 16.4356H22.8299C22.8704 16.4356 22.921 16.4261 22.9716 16.4261C23.0323 16.4261 23.093 16.4165 23.1639 16.4165C23.2347 16.4165 23.3157 16.407 23.3966 16.407C23.4776 16.407 23.5585 16.407 23.6294 16.407C23.7407 16.407 23.8318 16.4261 23.8925 16.4642C23.9532 16.5024 23.9937 16.5883 23.9937 16.7219V16.8842H23.7306C23.3157 16.8842 23.0019 16.9415 22.8198 17.0655C22.6275 17.1896 22.5364 17.39 22.5364 17.6573V17.6955C22.5364 17.8482 22.5567 17.9723 22.6073 18.0677C22.6579 18.1727 22.7186 18.249 22.7996 18.3159C22.8805 18.3731 22.9615 18.4208 23.0627 18.4495C23.1639 18.4781 23.2651 18.4877 23.3764 18.4877C23.518 18.4877 23.6496 18.4686 23.7508 18.4304C23.852 18.3922 23.9532 18.3445 24.0544 18.2777V18.354C24.0544 18.3827 24.0645 18.4018 24.0847 18.4208C24.105 18.4399 24.1252 18.4495 24.1556 18.4495H24.702C24.7324 18.4495 24.7526 18.4399 24.7729 18.4208C24.7931 18.4018 24.8032 18.3827 24.8032 18.354V16.7124H24.7931ZM22.1924 18.3636V18.0104C22.1924 17.9627 22.162 17.9341 22.0912 17.9341H21.8584C21.7876 17.9341 21.737 17.9245 21.7269 17.8959C21.7066 17.8673 21.7066 17.81 21.7066 17.7146V16.3783H22.1013C22.1317 16.3783 22.1519 16.3688 22.1721 16.3497C22.1924 16.3306 22.2025 16.3115 22.2025 16.2829V15.9107C22.2025 15.882 22.1924 15.8629 22.1721 15.8438C22.1519 15.8248 22.1317 15.8152 22.1013 15.8152H21.7066V15.3284C21.7066 15.2998 21.6965 15.2807 21.6864 15.2712C21.6662 15.2616 21.6459 15.2521 21.6257 15.2521H21.6156L21.0286 15.3475C20.9983 15.3571 20.978 15.3666 20.9578 15.3762C20.9376 15.3953 20.9274 15.4143 20.9274 15.4334V15.8057H20.5328C20.5024 15.8057 20.4822 15.8152 20.4619 15.8343C20.4417 15.8534 20.4316 15.8725 20.4316 15.9011V16.2065C20.4316 16.2352 20.4417 16.2543 20.4619 16.2638C20.4822 16.2829 20.5024 16.2924 20.5328 16.302L20.9274 16.3592V17.6955C20.9274 17.8577 20.9477 17.9913 20.978 18.0963C21.0185 18.2013 21.0691 18.2777 21.1298 18.3349C21.1905 18.3922 21.2816 18.4304 21.3828 18.4495C21.484 18.4686 21.6054 18.4781 21.737 18.4781C21.8078 18.4781 21.8686 18.4781 21.9293 18.4686C21.9799 18.459 22.0507 18.4495 22.1215 18.4399C22.162 18.4399 22.1924 18.4113 22.1924 18.3636ZM20.0673 18.354V16.8269C20.0673 16.6838 20.0571 16.5501 20.0268 16.4165C20.0065 16.2924 19.956 16.1779 19.8952 16.0825C19.8345 15.987 19.7434 15.9107 19.6321 15.8629C19.5208 15.8057 19.3791 15.777 19.197 15.777C19.0452 15.777 18.9035 15.7961 18.7821 15.8343C18.6606 15.8725 18.5392 15.9297 18.3975 16.0252V15.9107C18.3975 15.882 18.3874 15.8629 18.3672 15.8438C18.3469 15.8248 18.3267 15.8152 18.2963 15.8152H17.7499C17.7195 15.8152 17.6993 15.8248 17.679 15.8438C17.6588 15.8629 17.6487 15.882 17.6487 15.9107V18.354C17.6487 18.3827 17.6588 18.4018 17.679 18.4208C17.6993 18.4399 17.7195 18.4495 17.7499 18.4495H18.3368C18.3672 18.4495 18.3874 18.4399 18.4077 18.4208C18.4279 18.4018 18.438 18.3827 18.438 18.354V16.5501C18.519 16.512 18.5999 16.4738 18.6809 16.4451C18.7517 16.4165 18.8327 16.407 18.9035 16.407C18.9744 16.407 19.0351 16.4165 19.0857 16.4261C19.1363 16.4356 19.1666 16.4642 19.197 16.4929C19.2273 16.531 19.2375 16.5692 19.2476 16.6265C19.2577 16.6838 19.2577 16.7506 19.2577 16.8269V18.354C19.2577 18.3827 19.2678 18.4018 19.2881 18.4208C19.3083 18.4399 19.3285 18.4495 19.3589 18.4495H19.9458C19.9762 18.4495 19.9964 18.4399 20.0167 18.4208C20.0571 18.4018 20.0673 18.3731 20.0673 18.354ZM16.3837 17.2946C16.3837 17.6668 16.2421 17.8577 15.9486 17.8577C15.8069 17.8577 15.6956 17.81 15.6248 17.7146C15.5539 17.6191 15.5134 17.4759 15.5134 17.2946V16.9701C15.5134 16.7792 15.5539 16.6456 15.6248 16.5501C15.6956 16.4547 15.8069 16.407 15.9486 16.407C16.2319 16.407 16.3837 16.5979 16.3837 16.9701V17.2946ZM17.1731 16.9701C17.1731 16.7887 17.1427 16.6169 17.0921 16.4738C17.0415 16.3306 16.9606 16.2065 16.8594 16.1015C16.7582 15.9966 16.6266 15.9202 16.4748 15.8629C16.323 15.8057 16.151 15.777 15.9486 15.777C15.7462 15.777 15.5742 15.8057 15.4224 15.8629C15.2706 15.9202 15.139 15.9966 15.0378 16.1015C14.9366 16.2065 14.8557 16.3306 14.8051 16.4738C14.7545 16.6169 14.7241 16.7887 14.7241 16.9701V17.2946C14.7241 17.4759 14.7545 17.6477 14.8051 17.7909C14.8557 17.9341 14.9366 18.0582 15.0378 18.1631C15.139 18.2681 15.2706 18.3445 15.4224 18.4018C15.5742 18.459 15.7462 18.4877 15.9486 18.4877C16.151 18.4877 16.323 18.459 16.4748 18.4018C16.6266 18.3445 16.7582 18.2681 16.8594 18.1631C16.9606 18.0582 17.0415 17.9341 17.0921 17.7909C17.1427 17.6477 17.1731 17.4759 17.1731 17.2946V16.9701ZM14.461 18.3159V17.9054C14.461 17.8768 14.4509 17.8577 14.4307 17.8482C14.4104 17.8386 14.3902 17.8291 14.3598 17.8291H14.3497C14.2586 17.8386 14.1675 17.8482 14.0866 17.8482C14.0056 17.8482 13.8943 17.8577 13.7526 17.8577C13.702 17.8577 13.6413 17.8482 13.6008 17.8291C13.5502 17.81 13.5098 17.7814 13.4693 17.7432C13.4288 17.705 13.4086 17.6477 13.3883 17.5809C13.3681 17.5141 13.358 17.4282 13.358 17.3232V16.9415C13.358 16.8365 13.3681 16.7506 13.3883 16.6838C13.4086 16.6169 13.4389 16.5597 13.4693 16.5215C13.5098 16.4833 13.5502 16.4547 13.6008 16.4356C13.6514 16.4165 13.702 16.407 13.7526 16.407C13.8943 16.407 14.0056 16.407 14.0866 16.4165C14.1675 16.4261 14.2586 16.4261 14.3497 16.4356H14.3598C14.3902 16.4356 14.4104 16.4261 14.4307 16.4165C14.4509 16.407 14.461 16.3879 14.461 16.3592V15.9488C14.461 15.9107 14.4509 15.8916 14.4408 15.882C14.4205 15.8725 14.4003 15.8534 14.3598 15.8438C14.289 15.8248 14.208 15.8152 14.0967 15.7961C13.9854 15.777 13.864 15.777 13.7122 15.777C13.3681 15.777 13.0949 15.8725 12.8824 16.0729C12.68 16.2733 12.5686 16.5597 12.5686 16.9415V17.3232C12.5686 17.6955 12.6698 17.9913 12.8824 18.1918C13.0847 18.3922 13.3681 18.4877 13.7122 18.4877C13.8538 18.4877 13.9854 18.4781 14.0967 18.4686C14.208 18.4495 14.289 18.4399 14.3598 18.4208C14.4003 18.4113 14.4205 18.4018 14.4408 18.3827C14.461 18.3731 14.461 18.3445 14.461 18.3159ZM12.0728 18.354V16.8269C12.0728 16.6838 12.0627 16.5501 12.0323 16.4165C12.0121 16.2924 11.9615 16.1779 11.9008 16.0825C11.84 15.987 11.749 15.9107 11.6376 15.8629C11.5263 15.8057 11.3847 15.777 11.2025 15.777C11.0507 15.777 10.909 15.7961 10.7876 15.8343C10.6662 15.8725 10.5447 15.9297 10.4031 16.0252V15.9107C10.4031 15.882 10.3929 15.8629 10.3727 15.8438C10.3525 15.8248 10.3322 15.8152 10.3019 15.8152H9.7554C9.72504 15.8152 9.7048 15.8248 9.68456 15.8438C9.66432 15.8629 9.6542 15.882 9.6542 15.9107V18.354C9.6542 18.3827 9.66432 18.4018 9.68456 18.4208C9.7048 18.4399 9.72504 18.4495 9.7554 18.4495H10.3423C10.3727 18.4495 10.3929 18.4399 10.4132 18.4208C10.4334 18.4018 10.4435 18.3827 10.4435 18.354V16.5501C10.5245 16.512 10.6054 16.4738 10.6864 16.4451C10.7572 16.4165 10.8382 16.407 10.909 16.407C10.9799 16.407 11.0406 16.4165 11.0912 16.4261C11.1418 16.4356 11.1721 16.4642 11.2025 16.4929C11.2329 16.531 11.243 16.5692 11.2531 16.6265C11.2632 16.6838 11.2632 16.7506 11.2632 16.8269V18.354C11.2632 18.3827 11.2733 18.4018 11.2936 18.4208C11.3138 18.4399 11.3341 18.4495 11.3644 18.4495H11.9514C11.9817 18.4495 12.002 18.4399 12.0222 18.4208C12.0525 18.4018 12.0728 18.3731 12.0728 18.354ZM8.3083 17.8291C8.24758 17.8577 8.18686 17.8768 8.11603 17.8959C8.04519 17.915 7.97435 17.9245 7.90351 17.9245C7.80232 17.9245 7.72136 17.915 7.67076 17.8864C7.62017 17.8577 7.59993 17.8005 7.59993 17.6955V17.6573C7.59993 17.6 7.61005 17.5523 7.62017 17.5141C7.63029 17.4759 7.66064 17.4378 7.691 17.4091C7.72136 17.3805 7.77196 17.3614 7.82256 17.3423C7.87316 17.3328 7.94399 17.3232 8.03507 17.3232H8.3083V17.8291ZM9.08751 16.7124C9.08751 16.5406 9.05715 16.3974 9.00655 16.2829C8.95595 16.1684 8.875 16.0729 8.78392 15.9966C8.68272 15.9202 8.57141 15.8629 8.42973 15.8343C8.28806 15.7961 8.12614 15.777 7.95411 15.777C7.7922 15.777 7.63029 15.7866 7.47849 15.8057C7.3267 15.8248 7.20526 15.8438 7.11419 15.8725C7.05347 15.8916 7.02311 15.9202 7.02311 15.9775V16.3497C7.02311 16.3783 7.03323 16.3974 7.04335 16.4165C7.06359 16.4261 7.08383 16.4356 7.10407 16.4356H7.12431C7.16478 16.4356 7.21538 16.4261 7.26598 16.4261C7.3267 16.4261 7.38741 16.4165 7.46837 16.4165C7.53921 16.4165 7.62017 16.407 7.70112 16.407C7.78208 16.407 7.86304 16.407 7.93387 16.407C8.04519 16.407 8.13626 16.4261 8.19698 16.4642C8.2577 16.5024 8.29818 16.5883 8.29818 16.7219V16.8842H8.03507C7.62017 16.8842 7.30646 16.9415 7.12431 17.0655C6.94215 17.1896 6.84096 17.39 6.84096 17.6573V17.6955C6.84096 17.8482 6.8612 17.9723 6.91179 18.0677C6.96239 18.1727 7.02311 18.249 7.10407 18.3159C7.18502 18.3731 7.26598 18.4208 7.36718 18.4495C7.46837 18.4781 7.56957 18.4877 7.68088 18.4877C7.82256 18.4877 7.95411 18.4686 8.05531 18.4304C8.1565 18.3922 8.2577 18.3445 8.3589 18.2777V18.354C8.3589 18.3827 8.36902 18.4018 8.38925 18.4208C8.40949 18.4399 8.42973 18.4495 8.46009 18.4495H9.00655C9.03691 18.4495 9.05715 18.4399 9.07739 18.4208C9.09763 18.4018 9.10775 18.3827 9.10775 18.354V16.7124H9.08751ZM5.60637 17.4378C5.60637 17.5618 5.55577 17.6668 5.46469 17.7336C5.37362 17.8005 5.19146 17.8386 4.94859 17.8386H4.86764C4.82716 17.8386 4.78668 17.8386 4.7462 17.8386C4.70572 17.8386 4.66524 17.8386 4.62477 17.8386H4.54381V16.9796H5.09027C5.28254 16.9796 5.42421 17.0178 5.49505 17.1037C5.56589 17.1896 5.60637 17.2851 5.60637 17.39V17.4378ZM5.58613 16.0729C5.58613 16.1206 5.57601 16.1684 5.56589 16.2161C5.54565 16.2638 5.52541 16.302 5.48493 16.3306C5.44445 16.3592 5.39385 16.3879 5.33314 16.407C5.27242 16.4261 5.19146 16.4356 5.09027 16.4356H4.54381V15.6434C4.56405 15.6434 4.58429 15.6434 4.61465 15.6434C4.645 15.6434 4.68548 15.6434 4.72596 15.6434H4.83728H4.91823C5.17122 15.6434 5.34326 15.672 5.44445 15.7293C5.54565 15.7866 5.59625 15.882 5.59625 16.0061V16.0729H5.58613ZM6.41593 17.39C6.41593 17.2278 6.37546 17.0942 6.2945 16.9796C6.21354 16.8651 6.11235 16.7697 5.98079 16.7124C6.11235 16.6551 6.21354 16.5597 6.28438 16.4451C6.35522 16.3211 6.39569 16.1874 6.39569 16.0443V15.9584C6.39569 15.777 6.35522 15.6243 6.28438 15.5002C6.21354 15.3762 6.10223 15.2807 5.97067 15.2044C5.83912 15.128 5.6772 15.0803 5.48493 15.0421C5.29266 15.0135 5.09027 14.9944 4.85752 14.9944C4.77656 14.9944 4.6956 14.9944 4.61465 14.9944C4.53369 14.9944 4.45273 15.0039 4.37178 15.0039C4.29082 15.0039 4.21998 15.0135 4.14914 15.023C4.07831 15.0326 4.02771 15.0326 3.98723 15.0421C3.89615 15.0612 3.82532 15.0803 3.78484 15.128C3.74436 15.1662 3.72412 15.2425 3.72412 15.3475V18.1345C3.72412 18.2395 3.74436 18.3063 3.78484 18.354C3.82532 18.3922 3.89615 18.4208 3.98723 18.4399C4.03783 18.4495 4.09855 18.459 4.15926 18.459C4.2301 18.4686 4.30094 18.4686 4.38189 18.4781C4.46285 18.4781 4.54381 18.4877 4.62477 18.4877C4.70572 18.4877 4.7968 18.4877 4.87776 18.4877C5.09027 18.4877 5.29266 18.4686 5.47481 18.4399C5.65696 18.4113 5.829 18.354 5.96055 18.2777C6.10223 18.2013 6.20342 18.0963 6.2945 17.9627C6.37546 17.8291 6.41593 17.6573 6.41593 17.4569V17.39Z" fill="#004E91"/>
</g>
<defs>
<clipPath id="clip0_253_906">
<rect width="33" height="22" fill="white"/>
</clipPath>
</defs>
</svg>
