<svg width="42" height="24" viewBox="0 0 42 24" fill="none" xmlns="http://www.w3.org/2000/svg">
<path d="M37.8108 0.383911H4.49116C2.30416 0.383911 0.53125 2.15682 0.53125 4.34382V19.3348C0.53125 21.5218 2.30416 23.2947 4.49116 23.2947H37.8108C39.9978 23.2947 41.7707 21.5218 41.7707 19.3348V4.34382C41.7707 2.15682 39.9978 0.383911 37.8108 0.383911Z" fill="#FFB3C7"/>
<path fill-rule="evenodd" clip-rule="evenodd" d="M37.9099 13.8317C37.3703 13.8317 36.933 14.273 36.933 14.8175C36.933 15.3618 37.3703 15.8033 37.9099 15.8033C38.4494 15.8033 38.8869 15.3619 38.8869 14.8175C38.8869 14.273 38.4494 13.8317 37.9099 13.8317ZM34.6957 13.0695C34.6957 12.3241 34.0643 11.72 33.2854 11.72C32.5065 11.72 31.875 12.3241 31.875 13.0695C31.875 13.8149 32.5064 14.4192 33.2854 14.4192C34.0644 14.4192 34.6957 13.8149 34.6957 13.0695ZM34.7009 10.4465H36.2574V15.6923H34.7009V15.3571C34.2612 15.6597 33.7304 15.8376 33.1579 15.8376C31.6429 15.8376 30.4147 14.5983 30.4147 13.0695C30.4147 11.5407 31.6429 10.3015 33.1579 10.3015C33.7304 10.3015 34.2612 10.4794 34.7009 10.7821V10.4465ZM22.2447 11.1298V10.4466H20.6511V15.6923H22.2483V13.2431C22.2483 12.4168 23.1359 11.9727 23.7517 11.9727C23.758 11.9727 23.7639 11.9733 23.7702 11.9734V10.447C23.1381 10.447 22.5568 10.72 22.2447 11.1298ZM18.2751 13.0695C18.2751 12.3241 17.6436 11.72 16.8647 11.72C16.0858 11.72 15.4543 12.3241 15.4543 13.0695C15.4543 13.8149 16.0858 14.4192 16.8647 14.4192C17.6437 14.4192 18.2751 13.8149 18.2751 13.0695ZM18.2802 10.4465H19.8368V15.6924H18.2802V15.3571C17.8405 15.6597 17.3097 15.8376 16.7373 15.8376C15.2223 15.8376 13.9941 14.5983 13.9941 13.0695C13.9941 11.5407 15.2223 10.3015 16.7373 10.3015C17.3098 10.3015 17.8405 10.4794 18.2802 10.7821V10.4465ZM27.6489 10.3054C27.0272 10.3054 26.4387 10.5002 26.0453 11.0376V10.4468H24.4955V15.6924H26.0643V12.9357C26.0643 12.1379 26.5945 11.7473 27.2328 11.7473C27.9169 11.7473 28.3101 12.1597 28.3101 12.9249V15.6924H29.8648V12.3565C29.8648 11.1357 28.9029 10.3054 27.6489 10.3054ZM11.7268 15.6924H13.356V8.10881H11.7268V15.6924ZM4.57031 15.6945H6.29541V8.10744H4.57031V15.6945ZM10.6041 8.10744C10.6041 9.74996 9.96976 11.2779 8.83942 12.4137L11.224 15.6948H9.09328L6.50179 12.1289L7.17061 11.6235C8.27977 10.7851 8.91596 9.50361 8.91596 8.10742L10.6041 8.10744Z" fill="#0A0B09"/>
</svg>
