<svg width="42" height="26" viewBox="0 0 42 26" fill="none" xmlns="http://www.w3.org/2000/svg">
<g clip-path="url(#clip0_253_931)">
<path opacity="0.07" d="M38.6842 0H3.31579C1.43684 0 0 1.40833 0 3.25V22.75C0 24.5917 1.54737 26 3.31579 26H38.6842C40.5632 26 42 24.5917 42 22.75V3.25C42 1.40833 40.4526 0 38.6842 0Z" fill="black"/>
<path d="M38.6844 1.08337C39.9002 1.08337 40.8949 2.05837 40.8949 3.25004V22.75C40.8949 23.9417 39.9002 24.9167 38.6844 24.9167H3.316C2.10021 24.9167 1.10547 23.9417 1.10547 22.75V3.25004C1.10547 2.05837 2.10021 1.08337 3.316 1.08337H38.6844Z" fill="white"/>
<path d="M16.5791 20.5833C20.8521 20.5833 24.316 17.1881 24.316 13C24.316 8.8118 20.8521 5.41663 16.5791 5.41663C12.3062 5.41663 8.84229 8.8118 8.84229 13C8.84229 17.1881 12.3062 20.5833 16.5791 20.5833Z" fill="#EB001B"/>
<path d="M25.4209 20.5833C29.6939 20.5833 33.1578 17.1881 33.1578 13C33.1578 8.8118 29.6939 5.41663 25.4209 5.41663C21.148 5.41663 17.6841 8.8118 17.6841 13C17.6841 17.1881 21.148 20.5833 25.4209 20.5833Z" fill="#00A2E5"/>
<path d="M24.3157 13C24.3157 10.4 22.9893 8.12495 20.9999 6.82495C19.0104 8.23328 17.6841 10.5083 17.6841 13C17.6841 15.4916 19.0104 17.875 20.9999 19.175C22.9893 17.875 24.3157 15.6 24.3157 13Z" fill="#7375CF"/>
</g>
<defs>
<clipPath id="clip0_253_931">
<rect width="42" height="26" fill="white"/>
</clipPath>
</defs>
</svg>
