<svg width="41" height="26" viewBox="0 0 41 26" fill="none" xmlns="http://www.w3.org/2000/svg">
<g clip-path="url(#clip0_253_925)">
<path opacity="0.07" d="M37.7632 0H3.23684C1.40263 0 0 1.40833 0 3.25V22.75C0 24.5917 1.51053 26 3.23684 26H37.7632C39.5974 26 41 24.5917 41 22.75V3.25C41 1.40833 39.4895 0 37.7632 0Z" fill="black"/>
<path d="M37.7633 1.08337C38.9502 1.08337 39.9212 2.05837 39.9212 3.25004V22.75C39.9212 23.9417 38.9502 24.9167 37.7633 24.9167H3.237C2.05015 24.9167 1.0791 23.9417 1.0791 22.75V3.25004C1.0791 2.05837 2.05015 1.08337 3.237 1.08337H37.7633Z" fill="white"/>
<path d="M16.1845 20.5833C20.3557 20.5833 23.7371 17.1881 23.7371 13C23.7371 8.8118 20.3557 5.41663 16.1845 5.41663C12.0133 5.41663 8.63184 8.8118 8.63184 13C8.63184 17.1881 12.0133 20.5833 16.1845 20.5833Z" fill="#EB001B"/>
<path d="M24.8153 20.5833C28.9865 20.5833 32.368 17.1881 32.368 13C32.368 8.8118 28.9865 5.41663 24.8153 5.41663C20.6441 5.41663 17.2627 8.8118 17.2627 13C17.2627 17.1881 20.6441 20.5833 24.8153 20.5833Z" fill="#F79E1B"/>
<path d="M23.7364 13C23.7364 10.4 22.4416 8.12495 20.4995 6.82495C18.5574 8.23328 17.2627 10.5083 17.2627 13C17.2627 15.4916 18.5574 17.875 20.4995 19.175C22.4416 17.875 23.7364 15.6 23.7364 13Z" fill="#FF5F00"/>
</g>
<defs>
<clipPath id="clip0_253_925">
<rect width="41" height="26" fill="white"/>
</clipPath>
</defs>
</svg>
