<svg width="69" height="24" viewBox="0 0 69 24" fill="none" xmlns="http://www.w3.org/2000/svg">
<rect x="0.28125" y="0.5625" width="67.9688" height="22.6562" rx="4" fill="white"/>
<path d="M24.0328 7.44128C23.9202 7.44128 23.8245 7.52317 23.8069 7.63468L22.503 15.915C22.4983 15.9452 22.5002 15.9761 22.5085 16.0056C22.5168 16.0351 22.5314 16.0624 22.5513 16.0856C22.5712 16.1089 22.5958 16.1276 22.6236 16.1404C22.6514 16.1532 22.6816 16.1598 22.7122 16.1598H24.2584C24.3709 16.1598 24.4667 16.0778 24.4844 15.9664L24.8674 13.5349C24.8848 13.4235 24.9807 13.3415 25.0933 13.3415H26.4991C28.1417 13.3415 29.536 12.1413 29.7907 10.515C30.0475 8.87498 28.7681 7.44484 26.9547 7.44128H24.0328ZM25.5359 9.28977H26.6607C27.5867 9.28977 27.8883 9.83693 27.793 10.442C27.6976 11.0484 27.2293 11.4951 26.3335 11.4951H25.1886L25.5359 9.28977ZM32.9356 9.85263C32.5452 9.85408 32.0959 9.93419 31.5915 10.1446C30.4346 10.6275 29.879 11.6255 29.643 12.3531C29.643 12.3531 28.892 14.573 30.5888 15.7926C30.5888 15.7926 32.1623 16.9667 33.9337 15.7203L33.9032 15.915C33.8984 15.9452 33.9003 15.9761 33.9086 16.0055C33.9169 16.035 33.9315 16.0622 33.9513 16.0855C33.9712 16.1088 33.9958 16.1274 34.0235 16.1403C34.0512 16.1531 34.0814 16.1598 34.112 16.1598H35.5798C35.6925 16.1598 35.7882 16.0778 35.8058 15.9664L36.6987 10.2961C36.7034 10.2658 36.7016 10.2349 36.6933 10.2054C36.6851 10.1759 36.6705 10.1486 36.6506 10.1253C36.6308 10.102 36.6062 10.0833 36.5784 10.0704C36.5506 10.0576 36.5204 10.0509 36.4899 10.0509H35.022C34.9093 10.0509 34.8135 10.1329 34.796 10.2443L34.7481 10.5495C34.7481 10.5495 34.1071 9.84826 32.9356 9.85263ZM32.9836 11.6437C33.1522 11.6437 33.3064 11.667 33.4447 11.7115C34.078 11.9151 34.4371 12.5244 34.3332 13.1848C34.205 13.998 33.5391 14.5968 32.685 14.5968C32.5166 14.5968 32.3624 14.5737 32.2239 14.5292C31.5907 14.3256 31.2294 13.7163 31.3333 13.0558C31.4614 12.2426 32.1295 11.6437 32.9836 11.6437Z" fill="#003087"/>
<path d="M45.1705 7.44128C45.0579 7.44128 44.9622 7.52317 44.9446 7.63468L43.6407 15.915C43.636 15.9452 43.6379 15.9761 43.6462 16.0056C43.6545 16.0351 43.6691 16.0624 43.689 16.0856C43.7089 16.1089 43.7335 16.1276 43.7613 16.1404C43.7891 16.1532 43.8193 16.1598 43.8499 16.1598H45.3961C45.5086 16.1598 45.6044 16.0778 45.6221 15.9664L46.0051 13.5349C46.0225 13.4235 46.1183 13.3415 46.231 13.3415H47.6368C49.2794 13.3415 50.6736 12.1413 50.9281 10.515C51.1851 8.87498 49.9058 7.44484 48.0924 7.44128H45.1705ZM46.6736 9.28977H47.7984C48.7244 9.28977 49.026 9.83693 48.9306 10.442C48.8353 11.0484 48.3671 11.4951 47.4712 11.4951H46.3263L46.6736 9.28977ZM54.0732 9.85263C53.6827 9.85408 53.2334 9.93419 52.7291 10.1446C51.5721 10.6275 51.0165 11.6255 50.7806 12.3531C50.7806 12.3531 50.0299 14.573 51.7266 15.7926C51.7266 15.7926 53.2999 16.9667 55.0714 15.7203L55.0409 15.915C55.0361 15.9452 55.038 15.9761 55.0463 16.0056C55.0546 16.0351 55.0693 16.0624 55.0891 16.0856C55.109 16.1089 55.1337 16.1276 55.1614 16.1404C55.1892 16.1532 55.2194 16.1598 55.25 16.1598H56.7177C56.8303 16.1598 56.926 16.0778 56.9436 15.9664L57.8368 10.2961C57.8416 10.2658 57.8398 10.2348 57.8315 10.2053C57.8232 10.1758 57.8086 10.1485 57.7887 10.1252C57.7688 10.1019 57.7442 10.0832 57.7164 10.0703C57.6886 10.0575 57.6583 10.0509 57.6277 10.0509H56.1598C56.0472 10.0509 55.9514 10.1329 55.9339 10.2443L55.8859 10.5495C55.8859 10.5495 55.2446 9.84826 54.0732 9.85263ZM54.1212 11.6437C54.2897 11.6437 54.4439 11.667 54.5822 11.7115C55.2156 11.9151 55.5747 12.5244 55.4707 13.1848C55.3426 13.998 54.6766 14.5968 53.8225 14.5968C53.6541 14.5968 53.4999 14.5737 53.3614 14.5292C52.7283 14.3256 52.3669 13.7163 52.4708 13.0558C52.599 12.2426 53.2671 11.6437 54.1212 11.6437Z" fill="#0070E0"/>
<path d="M37.3945 10.0508C37.2782 10.0508 37.1954 10.1646 37.231 10.2754L38.8403 15.2763L37.3852 17.633C37.3145 17.7474 37.3966 17.8951 37.5309 17.8951H39.2508C39.2999 17.8951 39.3483 17.8823 39.3911 17.8581C39.4339 17.8339 39.4698 17.7991 39.4953 17.7569L43.9897 10.3114C44.0587 10.197 43.9763 10.0507 43.8428 10.0507H42.1232C42.0735 10.0507 42.0247 10.0637 41.9816 10.0883C41.9385 10.113 41.9025 10.1485 41.8772 10.1913L40.1081 13.1823L39.21 10.2135C39.1808 10.1168 39.0917 10.0507 38.991 10.0507L37.3945 10.0508Z" fill="#003087"/>
<path d="M59.5049 7.44128C59.3924 7.44128 59.2966 7.52333 59.2789 7.63468L57.9748 15.9147C57.97 15.9449 57.9718 15.9759 57.9801 16.0054C57.9884 16.0349 58.003 16.0622 58.0229 16.0855C58.0428 16.1088 58.0675 16.1275 58.0952 16.1404C58.123 16.1532 58.1533 16.1598 58.1839 16.1598H59.7302C59.8426 16.1598 59.9385 16.0778 59.9561 15.9664L61.2599 7.68614C61.2647 7.65592 61.2628 7.62503 61.2545 7.5956C61.2462 7.56616 61.2316 7.53888 61.2118 7.51562C61.1919 7.49235 61.1673 7.47367 61.1396 7.46084C61.1119 7.448 61.0817 7.44133 61.0511 7.44128H59.5049Z" fill="#0070E0"/>
<path d="M11.1414 7.44128C11.0418 7.44137 10.9455 7.47702 10.8698 7.54183C10.7941 7.60665 10.7439 7.69637 10.7283 7.79489L10.042 12.1541C10.074 11.9505 10.2492 11.8005 10.4551 11.8005H12.4663C14.4904 11.8005 16.208 10.3218 16.5218 8.31795C16.5452 8.16834 16.5584 8.01733 16.5614 7.86594C16.047 7.59584 15.4427 7.44128 14.7806 7.44128H11.1414Z" fill="#001C64"/>
<path d="M16.5617 7.86597C16.5587 8.01736 16.5455 8.16837 16.5221 8.31797C16.2083 10.3218 14.4906 11.8005 12.4666 11.8005H10.4554C10.2496 11.8005 10.0743 11.9504 10.0423 12.1541L9.41123 16.1599L9.01594 18.6728C9.00822 18.7214 9.01111 18.771 9.02442 18.8184C9.03773 18.8657 9.06113 18.9095 9.09301 18.9469C9.12489 18.9843 9.16449 19.0143 9.20908 19.0349C9.25367 19.0555 9.30218 19.0661 9.35127 19.0661H11.5343C11.6339 19.066 11.7302 19.0304 11.8059 18.9655C11.8816 18.9007 11.9318 18.811 11.9473 18.7125L12.5223 15.0604C12.5379 14.9618 12.5881 14.872 12.6639 14.8072C12.7397 14.7424 12.8361 14.7067 12.9357 14.7067H14.221C16.2451 14.7067 17.9627 13.2281 18.2765 11.2242C18.4994 9.802 17.7841 8.50781 16.5617 7.86597Z" fill="#0070E0"/>
<path d="M8.66158 4.53552C8.45585 4.53552 8.28051 4.68538 8.24851 4.88881L6.53547 15.7667C6.50298 15.9732 6.66233 16.16 6.87113 16.16H9.41144L10.0422 12.1542L10.7285 7.79504C10.7441 7.69653 10.7943 7.6068 10.87 7.54198C10.9457 7.47717 11.042 7.44152 11.1416 7.44144H14.7808C15.4431 7.44144 16.0472 7.59615 16.5616 7.86609C16.5968 6.04172 15.0936 4.53552 13.0268 4.53552H8.66158Z" fill="#003087"/>
</svg>
