<svg width="65" height="24" viewBox="0 0 65 24" fill="none" xmlns="http://www.w3.org/2000/svg">
<rect x="0.75" y="0.5625" width="63.2812" height="22.6562" rx="4" fill="white"/>
<path fill-rule="evenodd" clip-rule="evenodd" d="M20.0038 9.51892H16.8218C16.8218 8.95944 16.7635 8.57481 16.6353 8.38832C16.4488 8.10858 15.9243 7.95706 15.0734 7.95706C14.2459 7.95706 13.698 8.03865 13.43 8.20183C13.1619 8.36501 13.022 8.72633 13.022 9.27415C13.022 9.77534 13.1386 10.1017 13.3833 10.2532C13.5582 10.3698 13.7796 10.4281 14.0594 10.4514L14.7004 10.498C16.0758 10.5912 16.9383 10.6612 17.2763 10.7078C18.3603 10.8244 19.1529 11.1391 19.6424 11.6403C20.0271 12.0365 20.2602 12.5494 20.3301 13.1788C20.3767 13.5634 20.4001 13.9947 20.4001 14.4726C20.4001 15.5799 20.3068 16.3841 20.1087 16.897C19.759 17.8411 18.9547 18.4239 17.7192 18.6803C17.1947 18.7852 16.4022 18.8435 15.3415 18.8435C13.5582 18.8435 12.3227 18.7269 11.6233 18.4938C10.7608 18.2141 10.2013 17.6429 9.92159 16.7804C9.77007 16.3025 9.68848 15.5099 9.68848 14.391H12.8705V14.6707C12.8705 15.2652 13.0337 15.6498 13.3484 15.813C13.5698 15.9295 13.8379 15.9878 14.141 15.9995H15.3065C15.901 15.9995 16.2856 15.9645 16.4488 15.8946C16.7402 15.7664 16.9383 15.5682 17.0199 15.3001C17.0665 15.1253 17.0898 14.9155 17.0898 14.6474C17.0898 14.0413 16.88 13.68 16.4837 13.5518C16.3322 13.5052 15.6212 13.4236 14.3624 13.3303C13.3484 13.2487 12.6374 13.1788 12.2411 13.1089C11.2037 12.8991 10.5044 12.4678 10.1664 11.8151C9.86331 11.2556 9.71179 10.4164 9.71179 9.2858C9.71179 8.42328 9.79338 7.7356 9.95656 7.22275C10.1197 6.7099 10.3878 6.3136 10.7491 6.04552C11.2853 5.63757 11.973 5.3928 12.8005 5.32287C13.5698 5.25294 14.3391 5.21797 15.1084 5.22963C16.4371 5.22963 17.3929 5.31121 17.964 5.47439C19.351 5.87069 20.0387 7.00129 20.0387 8.84289C20.0271 8.99441 20.0154 9.21587 20.0038 9.51892ZM38.14 12.0249H40.3196C41.0073 12.0016 41.4386 11.9433 41.5901 11.8617C41.7999 11.7452 41.9398 11.512 42.0097 11.1624C42.0563 10.9293 42.0796 10.5796 42.0796 10.125C42.0796 9.56554 42.033 9.14594 41.9514 8.8662C41.8232 8.48156 41.5202 8.24845 41.0423 8.16686C40.949 8.1552 40.7159 8.14355 40.3662 8.14355H38.1517L38.14 12.0249ZM34.6317 18.5521V5.22963H41.1588C42.0563 5.22963 42.7324 5.29956 43.2102 5.45108C44.2826 5.80075 45.0052 6.5001 45.3782 7.56076C45.5647 8.12024 45.6579 8.95945 45.6579 10.09C45.6579 11.4421 45.553 12.4095 45.3432 13.004C44.9236 14.1695 44.0611 14.8456 42.7557 15.0204C42.6041 15.0437 41.9514 15.067 40.7975 15.0903L40.2147 15.1136H38.1284V18.5521H34.6317ZM52.4299 13.6567L50.7864 7.87547L49.1896 13.6567H52.4299ZM53.1292 16.2559H48.4436L47.8142 18.5637H44.1893L48.1056 5.24128H53.3857L57.3486 18.5637H53.8053L53.1292 16.2559ZM29.5731 7.00129C31.0534 7.00129 32.3704 7.68898 33.2446 8.77295L34.0139 7.09454C32.7551 5.894 31.0883 5.21797 29.34 5.22963C26.5193 5.22963 24.0949 6.95467 23.1042 9.40236H21.6006L20.7148 11.3372H22.6496C22.6379 11.512 22.6263 11.6985 22.6263 11.8734C22.6263 12.0948 22.6379 12.3163 22.6613 12.5261H21.6822L20.7963 14.4609H23.1625C24.1882 16.8387 26.5659 18.5171 29.3516 18.5171C30.7503 18.5171 32.0557 18.0975 33.1281 17.3632V14.9971C32.2655 15.9995 30.9951 16.6289 29.5731 16.6289C27.918 16.6289 26.461 15.7664 25.6218 14.4609H30.5638L31.4496 12.5261H24.8875C24.8292 12.1298 24.8176 11.7218 24.8642 11.3255H31.9975L32.8833 9.39071H25.4703C26.2978 7.96871 27.8247 7.00129 29.5731 7.00129Z" fill="black"/>
</svg>
