<svg width="41" height="26" viewBox="0 0 41 26" fill="none" xmlns="http://www.w3.org/2000/svg">
<g clip-path="url(#clip0_253_921)">
<path opacity="0.07" d="M37.7632 0H3.23684C1.40263 0 0 1.40833 0 3.25V22.75C0 24.5917 1.51053 26 3.23684 26H37.7632C39.5974 26 41 24.5917 41 22.75V3.25C41 1.40833 39.4895 0 37.7632 0Z" fill="black"/>
<path d="M37.7633 1.08337C38.9502 1.08337 39.9212 2.05837 39.9212 3.25004V22.75C39.9212 23.9417 38.9502 24.9167 37.7633 24.9167H3.237C2.05015 24.9167 1.0791 23.9417 1.0791 22.75V3.25004C1.0791 2.05837 2.05015 1.08337 3.237 1.08337H37.7633Z" fill="white"/>
<path d="M30.534 10.9416H30.2103C29.7787 12.025 29.4551 12.5666 29.1314 14.1916H31.1814C30.8577 12.5666 30.8577 11.8083 30.534 10.9416ZM33.663 17.3333H31.8287C31.7208 17.3333 31.7208 17.3333 31.6129 17.225L31.3972 16.25L31.2893 16.0333H28.6998C28.5919 16.0333 28.484 16.0333 28.484 16.25L28.1603 17.225C28.1603 17.3333 28.0524 17.3333 28.0524 17.3333H25.7866L26.0024 16.7916L29.1314 9.42496C29.1314 8.88329 29.4551 8.66663 29.9945 8.66663H31.6129C31.7208 8.66663 31.8287 8.66663 31.8287 8.88329L33.3393 15.925C33.4472 16.3583 33.5551 16.6833 33.5551 17.1166C33.663 17.225 33.663 17.225 33.663 17.3333ZM19.2051 17.0083L19.6366 15.0583C19.7445 15.0583 19.8524 15.1666 19.8524 15.1666C20.6077 15.4916 21.363 15.7083 22.1182 15.6C22.334 15.6 22.6577 15.4916 22.8735 15.3833C23.413 15.1666 23.413 14.625 22.9814 14.1916C22.7656 13.975 22.4419 13.8666 22.1182 13.65C21.6866 13.4333 21.2551 13.2166 20.9314 12.8916C19.6366 11.8083 20.0682 10.2916 20.8235 9.53329C21.4708 9.09996 21.7945 8.66663 22.6577 8.66663C23.9524 8.66663 25.3551 8.66663 26.0024 8.88329H26.1103C26.0024 9.53329 25.8945 10.075 25.6787 10.725C25.1393 10.5083 24.5998 10.2916 24.0603 10.2916C23.7366 10.2916 23.413 10.2916 23.0893 10.4C22.8735 10.4 22.7656 10.5083 22.6577 10.6166C22.4419 10.8333 22.4419 11.1583 22.6577 11.375L23.1972 11.8083C23.6287 12.025 24.0603 12.2416 24.384 12.4583C24.9235 12.7833 25.463 13.325 25.5708 13.975C25.7866 14.95 25.4629 15.8166 24.5998 16.4666C24.0603 16.9 23.8445 17.1166 23.0893 17.1166C21.5787 17.1166 20.3919 17.225 19.4208 16.9C19.313 17.1166 19.313 17.1166 19.2051 17.0083ZM15.4287 17.3333C15.5366 16.575 15.5366 16.575 15.6445 16.25C16.184 13.8666 16.7235 11.375 17.1551 8.99163C17.263 8.77496 17.263 8.66663 17.4787 8.66663H19.4208C19.2051 9.96663 18.9893 10.9416 18.6656 12.1333C18.3419 13.7583 18.0182 15.3833 17.5866 17.0083C17.5866 17.225 17.4787 17.225 17.263 17.225M5.39453 8.88329C5.39453 8.77496 5.61032 8.66663 5.71822 8.66663H9.38664C9.92611 8.66663 10.3577 8.99163 10.4656 9.53329L11.4366 14.3C11.4366 14.4083 11.4366 14.4083 11.5445 14.5166C11.5445 14.4083 11.6524 14.4083 11.6524 14.4083L13.9182 8.88329C13.8103 8.77496 13.9182 8.66663 14.0261 8.66663H16.2919C16.2919 8.77496 16.2919 8.77496 16.184 8.88329L12.8393 16.7916C12.7314 17.0083 12.7314 17.1166 12.6235 17.225C12.5156 17.3333 12.2998 17.225 12.084 17.225H10.4656C10.3577 17.225 10.2498 17.225 10.2498 17.0083L8.52348 10.2916C8.30769 10.075 7.984 9.74996 7.55243 9.64163C6.90506 9.31663 5.71822 9.09996 5.50243 9.09996L5.39453 8.88329Z" fill="#142688"/>
</g>
<defs>
<clipPath id="clip0_253_921">
<rect width="41" height="26" fill="white"/>
</clipPath>
</defs>
</svg>
